Coordinates
version=1
nRows=18
nColumns=22
inDegrees=yes

Units are S.I. units (second, meters, Newtons, ...)
If the header above contains a line with 'inDegrees', this indicates whether rotational values are in degrees (yes) or radians (no).

endheader
time	pelvis_tilt	pelvis_list	pelvis_rotation	pelvis_tx	pelvis_ty	pelvis_tz	hip_flexion_r	hip_adduction_r	hip_rotation_r	knee_angle_r	ankle_angle_r	subtalar_angle_r	hip_flexion_l	hip_adduction_l	hip_rotation_l	knee_angle_l	ankle_angle_l	subtalar_angle_l	lumbar_extension	lumbar_bending	lumbar_rotation
      0.01000000	      2.64525554	     -1.41593608	      0.07445906	      0.60113070	      1.08423738	     -0.34284947	     -4.53558293	      1.44142884	     -4.59887624	     -9.06759302	     10.40547216	     -3.83255365	     -3.82604630	     -0.76031997	     -3.36483678	    -11.13285401	     13.32743998	     -0.74599191	     -3.18846806	     -1.24183541	     -4.25594607
      0.02000000	      2.65654882	     -1.41642001	     -0.01168617	      0.60083558	      1.08422196	     -0.34266026	     -4.47205609	      1.43801011	     -4.46996923	     -9.17231753	     10.46380647	     -3.85576194	     -3.80841931	     -0.76075398	     -3.43874677	    -11.17361931	     13.37522224	     -0.73985619	     -3.19683284	     -1.24156598	     -4.27078246
      0.03000000	      2.66708715	     -1.40129174	     -0.10322591	      0.60049033	      1.08421613	     -0.34246906	     -4.37909439	      1.41400376	     -4.37233545	     -9.32269985	     10.50860538	     -3.86865729	     -3.78601861	     -0.74360826	     -3.51190185	    -11.21612790	     13.38669793	     -0.73303254	     -3.20361792	     -1.25926980	     -4.28564083
      0.04000000	      2.67667510	     -1.38865556	     -0.19023684	      0.60012451	      1.08421121	     -0.34229283	     -4.27865222	      1.39234051	     -4.26700148	     -9.48364446	     10.56083134	     -3.87177391	     -3.75803354	     -0.72849206	     -3.57216955	    -11.26431319	     13.40340948	     -0.73098755	     -3.20556639	     -1.27305899	     -4.31364540
      0.05000000	      2.68949199	     -1.37691702	     -0.27888600	      0.59971316	      1.08421529	     -0.34211506	     -4.16803948	      1.37096516	     -4.16959654	     -9.66320595	     10.61564131	     -3.86816202	     -3.72624582	     -0.71457480	     -3.63290915	    -11.32068650	     13.41503458	     -0.73188955	     -3.21739176	     -1.28639252	     -4.33697670
      0.06000000	      2.70025195	     -1.36448991	     -0.36655130	      0.59929194	      1.08422534	     -0.34194592	     -4.04936490	      1.34859501	     -4.07185519	     -9.85111301	     10.66656849	     -3.85941886	     -3.69217551	     -0.69927492	     -3.69122475	    -11.37625268	     13.42269305	     -0.73430361	     -3.22684432	     -1.29978602	     -4.35823099
      0.07000000	      2.69299537	     -1.34786465	     -0.45654561	      0.59886373	      1.08421745	     -0.34178364	     -3.90623022	      1.32141645	     -3.96317646	    -10.04743839	     10.71053268	     -3.84343920	     -3.64225276	     -0.67894130	     -3.76176196	    -11.42269760	     13.42848636	     -0.73830922	     -3.21443977	     -1.31699837	     -4.38116215
      0.08000000	      2.71852116	     -1.34131508	     -0.52750297	      0.59840958	      1.08425674	     -0.34165044	     -3.79553684	      1.30548042	     -3.89431937	    -10.24624527	     10.75646103	     -3.83708754	     -3.61961503	     -0.66999926	     -3.80346995	    -11.48128726	     13.42531782	     -0.74247547	     -3.25033042	     -1.32399672	     -4.39612931
      0.09000000	      2.73521745	     -1.32727539	     -0.60464990	      0.59793465	      1.08428774	     -0.34150202	     -3.67399138	      1.28254644	     -3.81249724	    -10.44453841	     10.79767422	     -3.82998426	     -3.59186879	     -0.65313264	     -3.85853773	    -11.52894949	     13.42001931	     -0.74789341	     -3.28120585	     -1.34093447	     -4.40801508
      0.10000000	      2.72230408	     -1.30821003	     -0.68563390	      0.59745841	      1.08427909	     -0.34133940	     -3.52344417	      1.25654509	     -3.71332383	    -10.63722015	     10.83656816	     -3.82179590	     -3.53847901	     -0.63207953	     -3.93348250	    -11.56314881	     13.41624692	     -0.75547547	     -3.27853494	     -1.36440274	     -4.42452791
      0.11000000	      2.75829289	     -1.31052637	     -0.71912389	      0.59698342	      1.08434592	     -0.34122723	     -3.45274848	      1.25873879	     -3.65752722	    -10.78156285	     10.82181361	     -3.82343168	     -3.53754439	     -0.63471680	     -3.92790766	    -11.59461896	     13.40731807	     -0.75525636	     -3.33995531	     -1.36486174	     -4.48338398
      0.12000000	      2.76536493	     -1.30128541	     -0.78756511	      0.59647288	      1.08434713	     -0.34105038	     -3.32232132	      1.24451014	     -3.62534564	    -10.97487239	     10.88807512	     -3.83146839	     -3.49554519	     -0.62910082	     -4.01353213	    -11.64474035	     13.39962113	     -0.75975483	     -3.37404149	     -1.38453549	     -4.47763323
      0.13000000	      2.74000047	     -1.29220211	     -0.83639226	      0.59595325	      1.08430941	     -0.34087680	     -3.18118459	      1.23723312	     -3.56313028	    -11.12491142	     10.91438896	     -3.84342094	     -3.41847268	     -0.62623176	     -4.06596715	    -11.69087511	     13.39642150	     -0.75978931	     -3.37402773	     -1.40623055	     -4.50586820
      0.14000000	      2.75512468	     -1.29508142	     -0.85550585	      0.59550165	      1.08433929	     -0.34073498	     -3.12328656	      1.24625607	     -3.52372353	    -11.21021353	     10.89862494	     -3.84663699	     -3.40791780	     -0.63488545	     -4.06749374	    -11.69599330	     13.39537121	     -0.75860224	     -3.41640492	     -1.41336554	     -4.57624287
      0.15000000	      2.67765046	     -1.29788859	     -0.87413430	      0.59499266	      1.08421583	     -0.34059054	     -2.94643460	      1.25428541	     -3.52506590	    -11.32910047	     10.92976035	     -3.87837637	     -3.26176093	     -0.65035492	     -4.10280617	    -11.76359884	     13.42042337	     -0.74500664	     -3.35873982	     -1.41880493	     -4.63741062
      0.16000000	      2.68965545	     -1.30224045	     -0.88496072	      0.59456745	      1.08423819	     -0.34043734	     -2.90978037	      1.26659944	     -3.50558912	    -11.37472465	     10.92130513	     -3.88072516	     -3.24308480	     -0.66390688	     -4.10373100	    -11.78053508	     13.41074182	     -0.74242179	     -3.39960290	     -1.42853317	     -4.69202664
      0.17000000	      2.64082280	     -1.31865045	     -0.86675690	      0.59414862	      1.08416582	     -0.34032903	     -2.81433648	      1.29220013	     -3.55112301	    -11.41253642	     10.92332807	     -3.89689280	     -3.13602820	     -0.69562185	     -4.09614376	    -11.83731519	     13.43191190	     -0.72369481	     -3.36925933	     -1.41927264	     -4.78098527
      0.18000000	      2.64351205	     -1.32036812	     -0.87467482	      0.59378400	      1.08417689	     -0.34017715	     -2.79387237	      1.30196990	     -3.54127453	    -11.41955550	     10.92029796	     -3.89717877	     -3.10947332	     -0.70714440	     -4.10301260	    -11.85498217	     13.42302163	     -0.72099798	     -3.39415278	     -1.43188695	     -4.82932314
